<mxfile host="app.diagrams.net" modified="2023-12-19T11:25:24.381Z" agent="Mozilla/5.0 (Windows NT 10.0; Win64; x64) AppleWebKit/537.36 (KHTML, like Gecko) Chrome/120.0.0.0 Safari/537.36" version="22.1.11" etag="va8FkzY5vpE8xKNrtAuL" type="github">
  <diagram name="Seite-1" id="JZSfzFzxSVxETnfOmWEB">
    <mxGraphModel>
      <root>
        <mxCell id="0" />
        <mxCell id="1" parent="0" />
      </root>
    </mxGraphModel>
  </diagram>
</mxfile>
